<?xml version="1.0" standalone="no"?>
<!DOCTYPE svg PUBLIC "-//W3C//DTD SVG 20010904//EN"
 "http://www.w3.org/TR/2001/REC-SVG-20010904/DTD/svg10.dtd">
<svg version="1.0" xmlns="http://www.w3.org/2000/svg"
 width="700.000000pt" height="700.000000pt" viewBox="0 0 700.000000 700.000000"
 preserveAspectRatio="xMidYMid meet">
<metadata>
Created by potrace 1.14, written by Peter Selinger 2001-2017
</metadata>
<g transform="translate(0.000000,700.000000) scale(0.100000,-0.100000)"
fill="#000000" stroke="none">
<path d="M634 6968 c3 -18 15 -96 26 -173 19 -129 34 -207 63 -340 5 -27 11
-84 11 -125 l1 -75 45 -7 c25 -3 67 -11 94 -17 26 -6 52 -9 56 -6 11 7 36 -70
59 -175 18 -83 17 -169 0 -181 -13 -8 -493 1 -501 9 -4 4 -15 55 -24 112 -9
58 -20 114 -25 125 -8 20 -8 20 -8 0 -1 -12 6 -72 15 -135 17 -123 27 -147
101 -225 21 -22 37 -43 35 -47 -1 -5 4 -8 11 -8 15 0 40 -68 31 -82 -11 -17
36 -56 59 -51 16 4 18 2 8 -5 -7 -5 -11 -15 -7 -21 5 -7 1 -9 -8 -5 -23 9 -20
-8 12 -68 15 -29 28 -69 29 -88 l1 -35 -10 28 c-5 15 -15 26 -21 24 -7 -2 -19
-1 -28 4 -25 13 -50 -12 -51 -51 0 -19 3 -87 7 -150 10 -161 9 -180 -14 -203
-18 -18 -23 -19 -53 -6 -18 7 -55 35 -81 62 -51 50 -70 55 -75 19 -2 -13 -8
-19 -18 -15 -9 3 -14 -2 -14 -15 0 -11 -4 -22 -9 -24 -15 -5 -61 -80 -61 -98
0 -23 -49 -110 -51 -90 0 8 -5 4 -10 -9 -5 -13 -7 -32 -4 -42 4 -11 1 -19 -5
-19 -8 0 -11 -15 -8 -45 2 -25 -1 -45 -6 -45 -4 0 -5 -12 0 -27 9 -34 16 -166
15 -286 -1 -49 2 -86 7 -83 4 2 8 -31 7 -75 0 -57 3 -79 12 -79 7 0 13 -4 13
-10 0 -5 -4 -10 -10 -10 -14 0 -12 -38 6 -89 9 -26 12 -56 8 -74 -5 -24 -3
-29 9 -24 12 4 17 -4 22 -34 5 -29 14 -43 31 -51 15 -7 23 -17 19 -26 -3 -7
-2 -19 2 -25 4 -7 10 -2 14 13 l7 25 1 -27 c1 -15 6 -30 12 -34 6 -3 9 -15 6
-25 -3 -10 1 -23 9 -30 8 -6 14 -17 14 -23 0 -6 8 -16 19 -23 10 -6 22 -24 25
-40 4 -15 20 -53 35 -83 15 -30 31 -79 34 -109 4 -30 13 -61 22 -71 8 -9 12
-20 8 -24 -5 -4 -1 -13 7 -19 33 -26 68 -123 75 -206 4 -45 12 -84 16 -87 5
-3 9 -24 9 -47 0 -23 7 -64 15 -91 8 -28 13 -57 10 -66 -3 -9 1 -35 9 -59 9
-23 13 -48 10 -56 -4 -9 1 -18 11 -21 9 -4 14 -13 11 -21 -3 -8 12 -61 34
-117 22 -56 40 -105 40 -108 0 -4 5 -19 11 -35 7 -15 13 -41 15 -56 5 -37 40
-103 58 -110 8 -3 20 -24 26 -47 6 -23 20 -48 30 -57 10 -9 17 -20 15 -24 -12
-19 35 -94 108 -170 26 -28 47 -57 47 -65 0 -8 5 -14 10 -14 6 0 9 -14 7 -32
-2 -18 -2 -25 0 -15 4 17 23 24 23 8 0 -5 -11 -43 -25 -85 -34 -103 -33 -120
3 -111 15 3 37 8 49 9 12 1 29 8 37 15 12 10 19 11 30 2 11 -9 15 -8 20 4 3 9
10 14 16 10 5 -3 23 1 40 10 17 9 34 13 39 10 5 -2 12 2 15 10 4 12 10 13 24
6 13 -7 22 -7 30 1 9 9 12 7 12 -7 0 -18 0 -18 15 1 14 19 15 19 21 -3 7 -24
19 -30 28 -14 10 16 44 19 70 6 14 -7 35 -11 47 -8 12 3 24 0 29 -7 5 -7 13
-9 21 -4 30 18 57 11 98 -26 24 -20 69 -50 101 -65 32 -15 64 -39 71 -52 7
-14 26 -31 41 -39 15 -8 28 -18 28 -23 0 -5 16 -24 36 -44 20 -19 41 -44 47
-55 7 -12 29 -46 50 -75 23 -33 41 -71 44 -95 5 -37 3 -43 -18 -51 -44 -19
-59 -37 -59 -72 1 -34 29 -79 50 -79 6 0 9 -4 5 -9 -3 -6 2 -14 11 -19 16 -9
16 -11 0 -33 -16 -24 -21 -60 -9 -72 9 -10 12 -76 3 -82 -4 -2 -6 7 -4 20 3
29 -4 31 -32 10 -17 -13 -17 -14 -1 -15 9 0 17 -7 17 -15 0 -8 4 -15 8 -15 15
0 52 46 45 55 -5 4 -3 5 4 2 6 -4 23 7 38 25 15 18 36 36 47 40 11 4 17 12 13
17 -3 6 4 15 15 21 35 19 24 -19 -15 -53 -19 -16 -35 -36 -35 -45 0 -10 8 -6
25 12 21 23 28 26 40 16 8 -7 15 -17 15 -22 0 -30 57 -51 83 -30 9 8 18 9 21
4 3 -6 -1 -15 -9 -22 -22 -18 -18 -33 5 -20 10 6 32 12 47 14 15 2 37 7 48 11
l20 7 -20 -17 c-20 -17 -19 -17 9 -12 36 6 56 -1 56 -19 0 -19 30 -18 52 3 16
14 21 15 28 4 10 -17 46 -9 76 16 18 14 20 21 11 40 -6 13 -16 22 -24 19 -17
-7 -17 10 0 18 10 5 10 7 0 12 -39 18 15 82 58 71 20 -5 21 -3 16 29 -6 34 -5
35 21 32 20 -2 26 1 24 12 -3 12 -1 13 9 2 18 -17 32 -15 25 3 -6 17 29 22 39
5 7 -11 -32 -90 -44 -90 -5 0 -14 12 -20 28 -8 20 -10 21 -7 5 6 -32 -10 -29
-18 3 -4 15 -9 24 -11 22 -11 -11 13 -63 28 -62 20 2 22 -19 4 -38 -6 -7 -13
-24 -15 -37 -1 -13 -12 -36 -23 -52 -13 -18 -18 -37 -14 -47 6 -15 8 -15 25 5
26 33 106 25 161 -16 23 -16 47 -27 54 -24 8 2 24 -5 36 -16 13 -12 30 -21 40
-21 36 0 81 -28 149 -93 59 -57 120 -98 120 -82 0 2 -10 25 -22 49 -17 37 -19
49 -10 68 l11 23 6 -21 c5 -15 13 -20 24 -17 10 2 26 -4 36 -14 10 -10 22 -18
27 -18 12 0 34 -36 42 -67 4 -20 2 -28 -6 -28 -9 0 -8 -3 2 -10 22 -14 43 -13
33 3 -4 6 -8 30 -8 53 0 35 2 39 13 27 8 -7 19 -10 25 -6 18 11 40 10 57 -4
20 -15 120 -29 120 -16 0 10 33 9 107 -2 25 -3 51 -1 63 5 16 8 24 8 35 -3 8
-8 11 -18 7 -22 -4 -3 5 -4 21 0 16 4 33 2 42 -5 8 -6 19 -9 25 -5 6 4 17 1
25 -5 11 -9 59 -12 161 -11 121 1 150 -1 164 -14 9 -9 32 -17 50 -20 18 -2 40
-10 49 -19 9 -8 30 -18 46 -21 17 -4 39 -13 50 -20 32 -19 68 -25 82 -13 9 7
13 7 13 -1 0 -6 9 -11 19 -11 11 0 23 -5 27 -11 3 -6 17 -9 30 -6 13 2 24 0
24 -5 0 -5 8 -8 18 -7 16 2 30 -2 77 -21 43 -17 61 -23 103 -30 36 -6 42 -4
42 11 0 17 2 17 33 -1 37 -22 102 -18 94 5 -4 8 8 10 38 8 30 -3 47 1 59 12 9
9 16 11 16 5 0 -7 7 -7 23 2 12 7 25 11 29 10 4 -1 5 4 3 11 -4 8 7 12 34 12
25 1 48 8 62 20 11 11 23 19 26 17 3 -2 11 7 17 20 6 13 16 23 21 23 23 1 95
40 95 52 0 7 10 18 23 24 34 18 62 53 59 72 -2 9 8 27 21 39 23 21 25 29 22
99 -2 42 -8 86 -14 97 -16 31 -14 53 5 45 23 -9 94 17 134 49 19 15 45 28 57
28 13 0 23 5 23 10 0 6 -6 10 -12 10 -24 0 16 20 40 20 12 0 25 7 28 15 4 8
14 15 24 15 10 0 20 6 22 12 3 7 22 13 46 13 23 0 42 3 42 6 0 12 110 21 124
10 7 -6 16 -8 19 -4 4 3 7 2 7 -4 0 -5 21 -20 48 -32 50 -25 120 -69 137 -87
6 -5 29 -23 53 -38 23 -16 42 -37 42 -47 0 -15 54 -64 72 -64 14 0 138 -108
138 -121 0 -8 8 -14 18 -14 9 0 26 -7 36 -15 11 -8 31 -15 44 -15 14 0 36 -13
52 -30 30 -32 46 -39 37 -16 -4 10 -1 13 9 9 7 -3 14 -9 14 -14 0 -5 9 -9 20
-9 20 0 20 7 20 2635 l0 2635 -722 1 c-398 1 -733 3 -746 4 -12 1 -338 6 -725
10 -386 4 -909 10 -1161 14 l-459 6 -20 -30 c-18 -28 -19 -28 -13 -5 12 47 19
158 11 177 -5 10 -7 22 -6 26 2 11 -25 37 -39 37 -7 0 -9 7 -6 15 4 11 -3 17
-25 22 -17 3 -33 12 -36 19 -7 19 -105 7 -177 -22 -33 -13 -65 -24 -72 -24 -7
0 -17 -6 -21 -12 -4 -7 -24 -22 -45 -33 -20 -11 -57 -39 -81 -63 -25 -23 -50
-42 -54 -42 -5 0 -24 -16 -43 -35 -18 -19 -37 -32 -42 -29 -4 3 -8 0 -8 -5 0
-6 -16 -31 -35 -57 -19 -25 -35 -42 -35 -38 0 4 -16 -9 -35 -29 -20 -21 -40
-37 -45 -37 -16 0 -80 -67 -80 -84 0 -9 -7 -16 -15 -16 -8 0 -15 -4 -15 -8 0
-8 -61 -34 -68 -28 -2 2 4 18 12 35 9 16 16 40 15 53 0 22 -1 22 -12 3 -7 -11
-29 -37 -50 -59 -36 -37 -37 -40 -26 -78 12 -47 6 -58 -19 -35 -10 10 -28 17
-39 17 -12 0 -21 6 -20 13 1 29 -4 47 -11 47 -13 0 -52 -36 -52 -47 0 -6 -7
-16 -15 -23 -12 -10 -17 -7 -27 16 l-12 29 -4 -25 c-5 -36 -22 -50 -23 -19 0
22 -1 22 -9 4 -7 -16 -9 -16 -9 -4 -1 9 6 30 14 45 23 44 19 64 -11 64 -14 0
-23 -4 -19 -10 3 -5 1 -10 -4 -10 -6 0 -11 6 -11 13 0 7 -7 4 -15 -7 -19 -25
-21 -106 -3 -88 7 7 17 12 23 12 5 -1 0 -9 -13 -20 -13 -11 -21 -24 -17 -30 5
-8 11 -8 19 -1 7 6 16 8 19 4 10 -9 9 -51 -1 -57 -17 -10 -52 7 -52 25 0 11
-5 19 -11 19 -5 0 -7 5 -3 11 4 7 1 10 -7 7 -8 -3 -13 -12 -11 -22 2 -9 -2
-16 -8 -16 -5 0 -10 14 -10 30 0 17 -4 30 -10 30 -13 0 -13 61 1 80 8 11 9 6
5 -20 -5 -31 -3 -36 14 -36 20 0 25 7 13 20 -14 14 -9 48 9 59 22 14 24 37 2
37 -10 0 -14 6 -10 15 6 16 -23 27 -58 22 -10 -1 -21 4 -23 11 -3 6 1 12 9 12
25 0 40 17 34 38 -6 18 -10 19 -39 10 -18 -6 -36 -15 -41 -19 -14 -12 -46 -11
-46 1 0 6 7 13 15 16 8 4 15 14 15 24 0 25 -28 77 -45 84 -17 6 -21 36 -5 36
16 0 12 26 -7 49 -13 15 -22 18 -33 11 -8 -5 -11 -12 -7 -17 5 -4 12 -1 17 7
6 9 10 10 10 3 0 -6 -4 -14 -9 -18 -6 -3 -4 -19 5 -40 25 -61 14 -126 -16 -90
-7 8 -9 15 -4 15 5 0 0 7 -11 15 -14 12 -20 31 -23 80 -4 57 -12 79 -63 173
-32 59 -59 111 -59 115 0 5 -6 15 -12 22 -7 8 -18 20 -23 27 -13 15 -45 83
-45 93 0 4 -15 24 -32 45 -82 92 -98 113 -98 124 0 7 -12 23 -26 37 -14 13
-37 43 -51 67 -14 23 -28 40 -32 38 -4 -3 -25 13 -46 35 -22 23 -44 38 -52 35
-8 -3 -11 -1 -8 4 3 6 -1 10 -9 10 -9 0 -16 4 -16 9 0 11 -38 2 -66 -16 -22
-14 -39 -73 -22 -73 5 0 6 -6 1 -12 -4 -7 -8 -16 -8 -20 0 -3 -3 -9 -6 -12
-14 -14 -18 108 -4 140 17 42 84 67 112 42 42 -35 91 -56 103 -45 10 9 11 9 8
-2 -4 -13 32 -61 45 -61 11 0 -2 44 -17 58 -10 11 -12 21 -6 38 5 13 6 23 2
21 -4 -1 -16 7 -27 18 -20 20 -37 80 -50 178 l-6 47 -190 0 -190 0 5 -32z
m433 -229 c2 -17 -1 -18 -12 -9 -8 7 -12 16 -9 21 9 16 20 10 21 -12z m-167
-346 c0 -22 -8 -14 -19 20 -10 29 -9 30 4 13 8 -11 15 -26 15 -33z m2040 -483
c30 0 41 -7 58 -37 7 -14 8 -23 2 -23 -5 0 -10 4 -10 10 0 5 -7 7 -15 3 -9 -3
-23 1 -33 10 -9 8 -27 18 -39 21 -23 7 -29 17 -16 29 4 4 11 3 17 -3 5 -5 21
-10 36 -10z m-95 -54 c-32 -23 -8 -36 67 -36 60 0 69 2 64 16 -5 12 -2 15 10
10 8 -3 19 -6 23 -6 5 0 6 -11 4 -24 -7 -33 -61 -96 -83 -96 -10 0 -25 -9 -32
-19 -12 -17 -20 -18 -50 -12 -20 5 -42 5 -49 0 -21 -13 -33 -11 -56 11 -15 14
-23 16 -26 7 -4 -7 -6 -6 -6 4 -1 8 15 23 35 32 19 10 32 22 29 27 -3 5 0 7 8
4 8 -3 18 -1 21 5 4 6 13 8 21 4 8 -3 15 0 15 6 0 6 -7 11 -16 11 -11 0 -15 6
-11 18 2 9 6 24 8 32 2 8 11 18 19 21 23 10 26 1 5 -15z m-1864 -98 c5 -82 4
-107 -3 -96 -15 23 -28 86 -22 102 9 23 24 20 25 -6z m2155 -78 c-13 -43 -13
-43 -11 -10 1 19 6 51 11 70 8 31 9 32 12 10 1 -14 -4 -45 -12 -70z m-1546 0
c0 -5 -4 -10 -10 -10 -5 0 -10 5 -10 10 0 6 5 10 10 10 6 0 10 -4 10 -10z
m-500 -20 c0 -5 -4 -10 -9 -10 -6 0 -13 5 -16 10 -3 6 1 10 9 10 9 0 16 -4 16
-10z m-435 -40 c3 -5 1 -10 -4 -10 -6 0 -11 5 -11 10 0 6 2 10 4 10 3 0 8 -4
11 -10z m2455 -35 c-7 -20 -14 -34 -17 -31 -3 2 1 20 8 40 17 46 25 38 9 -9z
m-730 14 c0 -6 -4 -7 -10 -4 -5 3 -10 11 -10 16 0 6 5 7 10 4 6 -3 10 -11 10
-16z m-12 -22 c6 -5 17 -5 22 -2 6 3 10 -2 10 -11 0 -10 -3 -14 -7 -11 -3 4
-13 1 -21 -5 -27 -23 -51 -19 -66 10 -14 27 -14 27 18 27 17 0 37 -4 44 -8z
m430 -16 c2 -7 -5 -15 -15 -17 -15 -4 -18 -12 -15 -36 4 -29 3 -31 -19 -25
-13 4 -28 7 -34 7 -12 0 -65 44 -65 54 0 3 10 6 23 6 12 0 40 7 62 15 44 16
57 15 63 -4z m-1098 -18 c-1 -24 -2 -26 -11 -10 -5 9 -7 22 -4 27 10 17 15 11
15 -17z m1390 -11 c0 -5 -7 -17 -15 -28 -14 -18 -14 -17 -4 9 12 27 19 34 19
19z m-590 -12 c0 -5 -9 -10 -20 -10 -11 0 -20 5 -20 10 0 6 9 10 20 10 11 0
20 -4 20 -10z m-315 -10 c3 -5 2 -10 -4 -10 -5 0 -13 5 -16 10 -3 6 -2 10 4
10 5 0 13 -4 16 -10z m155 -15 c0 -26 0 -26 -25 -8 -31 23 -31 33 0 33 20 0
25 -5 25 -25z m715 -46 c-6 -23 -52 -66 -61 -57 -2 3 10 23 28 46 35 45 42 47
33 11z m-122 -17 c-4 -18 -8 -20 -20 -10 -13 10 -13 14 3 25 22 16 25 13 17
-15z m-1933 -13 c0 -10 -4 -19 -8 -19 -18 0 -49 -36 -56 -65 -4 -16 -19 -42
-32 -56 -14 -14 -27 -39 -29 -55 -2 -16 -4 -31 -5 -34 -1 -3 -2 -20 -2 -39 0
-27 -6 -36 -27 -44 -23 -8 -26 -14 -23 -51 3 -30 -1 -46 -12 -55 -14 -12 -16
-11 -10 3 3 9 1 23 -6 31 -7 8 -10 21 -7 29 3 7 0 19 -6 25 -15 15 -14 118 1
133 7 7 12 26 12 43 0 16 7 39 15 49 8 11 15 27 15 36 0 16 33 50 49 50 5 0
33 11 62 24 59 26 69 25 69 -5z m1274 -4 c6 -17 42 -20 51 -5 3 6 24 10 45 10
34 0 41 -4 46 -24 3 -14 3 -29 0 -35 -8 -12 39 -45 53 -37 5 3 12 0 14 -6 3
-8 6 -6 6 5 1 27 17 20 31 -13 7 -17 21 -35 32 -41 22 -12 15 -29 -13 -29 -10
0 -19 -4 -19 -8 0 -16 -77 -44 -99 -37 -20 6 -30 25 -13 25 5 0 17 6 27 14 18
13 18 14 -8 9 -20 -4 -27 -2 -25 8 2 7 -4 13 -12 14 -8 0 -15 9 -15 19 0 35
-105 26 -119 -10 -3 -8 -9 -13 -14 -11 -4 3 -16 -1 -27 -9 -10 -8 -14 -14 -9
-14 6 0 14 4 20 10 5 5 14 6 21 2 16 -10 21 -64 6 -69 -7 -3 -13 0 -13 6 0 6
-9 11 -20 11 -11 0 -20 -4 -20 -10 0 -15 -30 -12 -31 3 -2 23 3 42 14 49 5 3
-2 5 -16 5 -15 -1 -27 -5 -27 -9 0 -5 -4 -8 -10 -8 -18 0 -11 29 10 42 11 7
20 18 20 24 0 6 9 19 20 29 10 9 24 33 31 52 8 26 16 34 29 30 13 -3 17 0 13
9 -3 8 -1 14 5 14 5 0 12 -7 16 -15z m-533 -5 c3 -24 2 -36 -6 -54 -5 -11 -4
-26 2 -35 6 -9 10 -36 8 -59 -1 -23 2 -45 6 -48 12 -7 11 -24 -1 -24 -5 0 -10
6 -10 14 0 8 -6 16 -12 18 -7 3 -14 16 -15 29 -1 13 -4 36 -7 52 -2 15 -1 25
3 22 4 -2 7 13 6 33 -1 20 0 43 3 50 5 14 21 16 23 2z m49 -40 c0 -5 -4 -10
-10 -10 -5 0 -10 5 -10 10 0 6 5 10 10 10 6 0 10 -4 10 -10z m1176 -42 c-4
-24 -9 -77 -12 -118 -6 -71 -8 -77 -46 -117 -39 -40 -40 -43 -35 -95 3 -29 9
-64 12 -78 7 -25 7 -76 0 -140 -2 -19 1 -54 7 -77 7 -28 7 -47 0 -59 -7 -13
-7 -25 0 -38 7 -13 7 -21 -2 -26 -7 -4 -10 -12 -6 -18 3 -5 -1 -26 -9 -46 -9
-22 -11 -36 -5 -36 6 0 2 -17 -9 -37 -23 -44 -35 -75 -32 -86 0 -4 -6 -21 -14
-37 -9 -16 -15 -32 -15 -35 1 -11 -29 -62 -44 -74 -9 -7 -14 -17 -11 -21 2 -4
-4 -15 -15 -25 -11 -10 -20 -22 -20 -27 0 -14 -62 -78 -75 -78 -12 0 -45 -36
-45 -48 0 -5 -22 -20 -50 -33 -27 -13 -52 -32 -55 -41 -4 -10 -16 -18 -29 -18
-12 0 -26 -4 -32 -9 -5 -5 -29 -12 -54 -16 l-45 -7 24 21 c14 12 35 24 49 28
13 3 28 16 32 29 6 16 18 24 32 24 13 0 42 9 64 19 33 15 42 24 42 45 0 14 -5
26 -10 26 -5 0 -7 -4 -3 -9 6 -10 -49 -41 -72 -41 -7 0 -16 -7 -19 -15 -7 -18
-31 -20 -36 -3 -3 8 -12 9 -36 0 -21 -7 -34 -8 -38 -1 -3 6 -15 9 -25 6 -11
-3 -19 -4 -19 -2 0 2 -3 11 -7 21 -4 11 -3 15 5 10 6 -3 13 -2 16 3 4 5 -3 12
-14 16 -22 7 -24 13 -10 35 10 15 -4 40 -23 40 -6 0 -2 -7 9 -15 17 -13 17
-14 -13 -6 -21 6 -39 5 -56 -4 -14 -7 -28 -11 -31 -8 -2 3 -10 1 -18 -3 -7 -4
-29 -7 -50 -5 -22 1 -38 -2 -38 -8 0 -6 5 -10 11 -8 20 4 21 -20 1 -25 -12 -4
-22 -18 -26 -39 -8 -41 -38 -79 -63 -79 -15 -1 -12 -5 12 -26 l30 -25 -29 11
c-16 6 -40 19 -55 29 -37 26 -75 37 -69 20 3 -8 17 -15 31 -17 31 -4 60 -41
51 -66 -3 -9 -10 -16 -15 -16 -26 0 1 -37 94 -131 56 -57 114 -119 129 -137
15 -19 79 -88 143 -153 63 -66 115 -124 115 -130 0 -19 -14 -6 -107 96 -50 55
-143 154 -207 220 -64 66 -116 123 -116 126 0 6 -88 89 -94 89 -2 0 -6 -9 -9
-20 -3 -14 -14 -20 -31 -20 -29 0 -30 -2 -16 -28 22 -41 110 -263 110 -279 -1
-17 -62 120 -99 220 -10 26 -23 53 -30 60 -18 18 -14 -8 9 -52 26 -53 60 -143
60 -161 -1 -23 -25 25 -61 123 -31 81 -49 108 -49 72 0 -8 -4 -15 -10 -15 -5
0 -10 5 -10 10 0 6 -25 10 -56 10 -53 0 -157 23 -179 40 -5 4 -32 11 -60 15
-27 3 -55 11 -62 16 -7 6 -17 8 -23 4 -7 -4 -18 2 -25 12 -10 14 -22 18 -43
15 -57 -8 -307 145 -288 177 3 4 -6 24 -19 44 -14 20 -24 46 -24 59 1 13 -2
38 -6 56 -8 35 9 47 18 12 6 -24 22 -26 31 -5 3 9 -1 18 -9 21 -11 5 -15 22
-15 65 0 48 3 57 15 53 9 -4 15 0 16 10 2 28 4 31 27 54 13 13 21 30 18 38 -3
8 -9 21 -13 31 -5 13 -2 15 16 10 14 -3 24 0 28 9 8 21 -2 27 -26 15 -27 -15
-72 -4 -64 15 3 8 0 14 -6 14 -6 0 -11 5 -11 10 0 6 7 10 15 10 8 0 15 5 15
10 0 6 -9 10 -20 10 -11 0 -20 5 -20 11 0 5 -4 8 -8 5 -5 -3 -16 4 -25 14 -10
12 -12 20 -5 22 6 2 4 10 -6 20 -21 21 -20 29 2 22 14 -5 13 -2 -4 13 -26 24
-58 72 -52 79 6 5 46 -16 115 -59 31 -19 97 -47 123 -52 29 -5 51 -19 46 -30
-2 -7 4 -22 15 -34 21 -22 39 -27 39 -11 0 6 -5 10 -10 10 -7 0 -7 6 0 19 5
11 7 27 3 37 -4 11 -2 15 4 11 31 -19 46 152 18 207 -8 15 -15 34 -15 41 0 7
-11 29 -25 49 -14 20 -25 40 -25 44 0 3 7 -4 16 -16 17 -25 34 -29 34 -7 0 8
6 12 14 9 8 -3 21 5 30 18 13 18 16 19 16 5 0 -9 4 -17 9 -17 11 0 35 59 34
82 -1 10 2 16 8 13 12 -8 12 -75 -1 -75 -7 0 -7 -6 0 -19 5 -11 7 -27 3 -37
-5 -15 -8 -14 -16 7 -9 24 -9 24 -24 -10 -14 -34 -12 -61 6 -61 6 0 7 8 4 18
-7 16 -6 16 11 0 14 -15 21 -16 39 -6 12 7 24 12 27 13 9 0 75 49 79 58 2 4
14 13 28 18 21 8 23 12 13 24 -10 12 -10 15 3 15 23 0 29 -15 28 -76 0 -49 2
-54 21 -54 17 0 19 -3 10 -12 -14 -14 2 -38 24 -38 20 0 17 47 -3 59 -15 9
-14 10 10 11 23 0 27 -3 22 -19 -3 -12 0 -21 10 -25 11 -4 15 1 15 19 0 13 -5
27 -11 31 -8 4 -8 9 1 18 13 13 33 -11 25 -31 -2 -6 7 -19 21 -27 29 -20 34
-42 5 -27 -25 14 -37 -12 -14 -31 13 -10 17 -10 20 0 3 6 13 12 24 12 10 0 19
7 19 15 0 27 20 16 21 -12 2 -24 2 -25 6 -5 2 12 9 22 14 22 5 0 9 7 9 15 0
16 12 20 23 8 4 -3 -1 -15 -10 -25 -15 -17 -15 -20 -1 -34 14 -14 17 -13 27
18 8 22 8 34 1 36 -5 2 -10 17 -10 33 0 27 -2 28 -20 17 -11 -7 -20 -18 -20
-25 0 -7 -4 -13 -10 -13 -5 0 -10 2 -10 4 0 2 -3 13 -7 23 -3 10 -3 15 2 11
18 -17 35 16 35 68 0 43 -3 52 -15 48 -16 -7 -20 -34 -7 -50 5 -5 3 -20 -4
-34 -11 -20 -14 -22 -19 -8 -4 9 -4 30 -2 47 3 17 1 34 -5 37 -5 3 -7 13 -4
21 4 8 1 11 -5 8 -6 -4 -8 -13 -5 -20 2 -7 -1 -21 -8 -31 -10 -13 -11 -27 -4
-51 5 -18 6 -37 3 -42 -3 -5 -1 -12 5 -16 12 -8 13 -25 1 -25 -5 0 -14 12 -21
28 -6 15 -22 47 -35 71 -23 41 -23 45 -8 70 26 41 55 71 64 65 5 -3 9 0 9 7 0
21 54 99 69 99 8 0 19 7 26 16 10 15 15 15 41 3 22 -11 29 -21 31 -49 3 -55
-7 -70 -20 -30 -7 21 -20 36 -31 38 -19 4 -19 3 -2 -23 11 -17 15 -36 12 -51
-4 -14 -2 -24 4 -24 5 0 10 -7 10 -15 0 -8 4 -15 10 -15 5 0 7 -7 4 -15 -10
-24 14 -17 32 10 18 28 40 34 30 9 -3 -8 1 -22 10 -31 25 -25 13 -54 -27 -67
-33 -12 -36 -11 -31 6 5 22 -20 25 -38 3 -7 -8 -21 -15 -31 -15 -11 0 -19 -4
-19 -10 0 -5 9 -10 20 -10 23 0 26 -10 8 -29 -25 -26 52 -2 111 34 49 31 56
39 56 68 0 30 2 32 31 31 18 -1 46 -12 63 -25 29 -21 30 -24 14 -41 -15 -17
-15 -18 13 -12 21 4 34 1 43 -10 17 -20 55 -21 70 -2 9 11 9 15 -1 18 -7 3
-19 -2 -26 -11 -12 -14 -13 -14 -8 2 3 10 6 24 6 30 0 19 41 41 50 27 4 -7 12
0 20 19 15 37 21 38 38 10 9 -14 20 -19 33 -16 11 3 23 -1 29 -11 5 -10 10
-12 10 -4 0 13 30 18 30 5 0 -5 -9 -23 -20 -40 -11 -18 -19 -48 -18 -67 1 -19
-5 -42 -12 -51 -12 -14 -11 -18 1 -26 11 -7 11 -9 -4 -9 -14 0 -16 -4 -8 -18
7 -14 6 -25 -7 -43 -9 -13 -16 -26 -16 -29 2 -6 -5 -26 -19 -62 -9 -21 -15
-25 -29 -17 -14 8 -19 5 -24 -15 -3 -13 -1 -33 5 -44 15 -28 14 -42 -3 -42
-12 0 -32 -29 -24 -35 2 -1 12 -7 23 -13 19 -11 19 -12 -4 -9 -13 1 -26 -4
-28 -11 -3 -7 1 -10 11 -6 11 4 16 1 16 -11 0 -12 -5 -15 -16 -11 -9 3 -21 6
-28 6 -9 0 -9 19 2 85 14 81 13 85 -7 111 -12 15 -21 30 -21 35 0 4 -11 20
-25 35 -13 14 -23 30 -20 33 2 4 -9 5 -26 3 -22 -3 -28 -1 -24 10 6 14 -31 46
-70 63 -18 7 -18 9 -2 12 9 3 17 13 17 23 0 16 -3 17 -25 7 -14 -7 -23 -17
-21 -24 3 -7 -1 -10 -9 -7 -8 3 -16 -3 -20 -15 -3 -12 -10 -19 -15 -16 -4 3
-10 -2 -14 -10 -3 -8 -15 -15 -26 -15 -22 0 -23 -1 -14 -24 3 -9 14 -16 23
-16 10 -1 6 -5 -10 -13 -62 -28 -121 -106 -154 -202 -10 -32 -16 -134 -5 -109
11 27 27 38 35 24 3 -5 18 -10 33 -10 15 0 35 -9 45 -20 9 -11 23 -20 31 -20
8 0 17 -7 20 -16 3 -8 10 -12 16 -9 6 4 24 -1 41 -9 17 -9 35 -14 38 -11 4 2
31 5 60 6 33 2 55 8 58 16 3 7 16 13 30 13 19 0 24 4 19 16 -4 12 -1 14 14 9
13 -4 22 -1 26 9 7 18 24 12 24 -9 0 -9 -6 -12 -17 -8 -13 5 -15 2 -10 -11 11
-28 -9 -54 -37 -49 -17 4 -28 -1 -38 -16 -7 -12 -18 -21 -24 -21 -6 0 -16 -6
-22 -13 -8 -10 -6 -13 9 -13 10 0 19 3 19 7 0 8 52 33 64 30 4 -1 15 4 23 11
12 10 17 9 28 -5 16 -23 32 -22 40 3 4 13 16 20 33 21 l27 1 -25 8 -25 8 26 1
c14 1 30 6 37 13 15 15 16 60 1 75 -6 6 -9 21 -7 34 3 26 29 32 61 17 11 -6
17 -5 17 3 0 7 3 10 6 6 8 -8 33 16 27 25 -2 4 1 16 7 27 12 24 -4 38 -25 21
-8 -6 -16 -7 -19 -2 -6 11 9 25 38 36 10 3 16 12 13 20 -7 17 18 40 33 31 14
-8 13 28 -1 42 -8 8 -3 13 20 18 33 7 52 25 27 25 -22 0 -20 6 9 38 16 17 21
28 13 33 -6 4 6 16 32 29 31 16 52 20 77 15 29 -5 38 -2 57 20 13 15 36 27 55
30 18 2 35 5 36 7 2 2 -1 23 -5 48 -8 41 -6 48 20 80 46 55 72 118 59 142 -7
13 -8 46 -4 89 7 65 8 69 32 69 24 0 25 -2 19 -42z m-1675 5 c13 -16 12 -17
-3 -4 -10 7 -18 15 -18 17 0 8 8 3 21 -13z m214 -10 c3 -15 10 -30 14 -33 12
-9 43 -63 32 -56 -6 4 -11 0 -11 -8 0 -9 -5 -16 -11 -16 -6 0 -9 6 -6 14 4 11
0 12 -23 3 -17 -6 -26 -16 -23 -24 6 -15 33 -18 33 -2 0 5 5 7 10 4 6 -4 17
-2 25 5 9 8 15 8 20 0 10 -16 -3 -62 -15 -55 -6 3 -10 -5 -10 -19 0 -14 -4
-27 -9 -30 -4 -3 -11 -19 -14 -36 -7 -34 -27 -41 -27 -9 0 11 -4 18 -10 14
-10 -6 -2 -36 12 -46 10 -7 0 -39 -13 -39 -4 0 -6 6 -3 13 3 8 -2 20 -11 27
-9 7 -15 29 -16 54 0 36 -2 38 -11 19 -6 -12 -17 -24 -25 -28 -12 -4 -14 1
-11 20 6 31 -5 40 -22 20 -7 -8 -18 -15 -24 -15 -6 0 -18 -9 -25 -19 -8 -11
-20 -17 -28 -14 -8 3 -10 10 -5 17 5 6 3 33 -3 60 l-11 49 -18 -42 c-20 -42
-33 -50 -54 -29 -15 15 -17 142 -2 133 6 -3 10 -2 10 4 0 6 17 13 38 16 20 4
54 13 76 21 21 8 46 12 56 9 12 -4 23 1 32 14 7 10 25 21 38 24 14 2 28 5 31
6 4 0 10 -11 14 -26z m262 -15 c-3 -8 -6 -5 -6 6 -1 11 2 17 5 13 3 -3 4 -12
1 -19z m832 -8 c11 -6 9 -9 -8 -15 -22 -7 -51 8 -51 27 0 9 31 3 59 -12z m45
-17 c-14 -10 -20 -11 -23 -2 -2 7 5 18 15 26 14 10 20 11 23 2 2 -7 -5 -18
-15 -26z m-703 4 c-10 -9 -11 -8 -5 6 3 10 9 15 12 12 3 -3 0 -11 -7 -18z
m-701 3 c0 -5 -4 -10 -10 -10 -5 0 -10 5 -10 10 0 6 5 10 10 10 6 0 10 -4 10
-10z m470 -81 c0 -10 5 -19 10 -19 6 0 10 -4 10 -9 0 -5 -9 -7 -20 -4 -13 4
-20 0 -20 -10 0 -8 -6 -20 -14 -26 -11 -9 -12 -6 -8 14 2 14 8 25 13 25 5 0 9
14 9 31 0 17 4 28 10 24 6 -3 10 -15 10 -26z m600 1 c-24 -16 -31 -11 -19 11
8 16 14 18 22 10 9 -9 8 -14 -3 -21z m730 -27 c0 -7 9 -13 20 -13 15 0 20 -7
20 -25 0 -19 -5 -24 -21 -22 -12 1 -24 -4 -27 -12 -3 -9 1 -11 16 -7 19 6 19
5 9 -17 -10 -22 -13 -23 -39 -9 -17 8 -28 21 -26 30 1 10 -1 29 -5 44 -4 15
-3 38 3 52 9 25 10 26 30 9 11 -10 20 -23 20 -30z m-575 -42 c-3 -6 -11 -11
-17 -11 -6 0 -6 6 2 15 14 17 26 13 15 -4z m707 7 c-9 -9 -15 -9 -24 0 -9 9
-7 12 12 12 19 0 21 -3 12 -12z m-2112 -23 c-7 -9 -15 -13 -19 -10 -3 3 1 10
9 15 21 14 24 12 10 -5z m1260 5 c0 -5 -5 -10 -11 -10 -5 0 -7 5 -4 10 3 6 8
10 11 10 2 0 4 -4 4 -10z m812 3 c-6 -2 -10 -9 -6 -14 3 -5 1 -9 -5 -9 -13 0
-22 15 -14 24 3 3 13 6 22 5 11 0 12 -2 3 -6z m1678 -3 c0 -5 -5 -10 -11 -10
-5 0 -7 5 -4 10 3 6 8 10 11 10 2 0 4 -4 4 -10z m-3666 -31 c-3 -6 -7 -9 -8
-7 -1 2 -8 12 -16 22 -14 18 -14 19 8 7 12 -7 20 -17 16 -22z m1096 10 c-7
-11 -9 -27 -6 -35 3 -8 2 -14 -3 -14 -4 0 -13 -10 -19 -22 -9 -20 -10 -17 -8
20 2 28 10 48 22 57 25 19 27 19 14 -6z m388 9 c-3 -7 -12 -14 -21 -16 -12 -2
-15 1 -11 12 7 19 38 22 32 4z m577 2 c-3 -5 -15 -10 -26 -10 -11 0 -17 5 -14
10 3 6 15 10 26 10 11 0 17 -4 14 -10z m-915 -31 c0 -5 -4 -9 -10 -9 -5 0 -10
7 -10 16 0 8 5 12 10 9 6 -3 10 -10 10 -16z m-1033 -11 c-3 -8 -6 -5 -6 6 -1
11 2 17 5 13 3 -3 4 -12 1 -19z m1409 -13 c21 -51 18 -63 -23 -80 -27 -11 -34
-18 -24 -24 17 -11 -12 -25 -59 -26 -19 -1 -48 -5 -65 -9 l-30 -7 27 17 c14
10 32 27 38 38 27 50 38 67 44 67 20 -2 26 0 26 11 0 14 30 48 42 48 5 0 16
-16 24 -35z m-296 -5 c0 -5 -4 -10 -10 -10 -5 0 -10 5 -10 10 0 6 5 10 10 10
6 0 10 -4 10 -10z m-1196 -25 c3 -8 2 -15 -3 -15 -5 0 -14 7 -21 15 -10 12
-10 15 3 15 8 0 17 -7 21 -15z m471 6 c3 -5 1 -12 -5 -16 -5 -3 -10 1 -10 9 0
18 6 21 15 7z m1430 -1 c-3 -5 -13 -10 -21 -10 -8 0 -12 5 -9 10 3 6 13 10 21
10 8 0 12 -4 9 -10z m-2055 -76 c-11 -25 -20 -54 -20 -64 0 -26 27 -99 43
-115 28 -27 83 -55 110 -55 15 0 27 -4 27 -10 0 -18 -74 -10 -119 13 -52 26
-79 58 -92 113 -12 53 6 139 33 159 33 22 39 9 18 -41z m1680 1 c0 -8 -7 -15
-15 -15 -8 0 -15 7 -15 15 0 8 7 15 15 15 8 0 15 -7 15 -15z m-1298 -20 c-2
-14 -6 -25 -8 -25 -2 0 -4 11 -4 25 0 14 4 25 9 25 4 0 6 -11 3 -25z m1058 5
c-19 -12 -30 -12 -30 -1 0 10 31 20 40 14 2 -2 -2 -8 -10 -13z m-1650 -35 c0
-8 -4 -15 -8 -15 -5 0 -9 7 -9 15 0 8 4 15 9 15 4 0 8 -7 8 -15z m2570 -85 c0
-5 -5 -10 -11 -10 -5 0 -7 5 -4 10 3 6 8 10 11 10 2 0 4 -4 4 -10z m-1316 -25
c3 -9 0 -15 -9 -15 -8 0 -15 7 -15 15 0 8 4 15 9 15 5 0 11 -7 15 -15z m-1154
-11 c0 -2 -7 -4 -15 -4 -8 0 -15 4 -15 10 0 5 7 7 15 4 8 -4 15 -8 15 -10z
m1590 -74 c0 -5 -2 -10 -4 -10 -3 0 -8 5 -11 10 -3 6 -1 10 4 10 6 0 11 -4 11
-10z m-564 -92 c-2 -103 38 -158 114 -158 20 0 41 11 64 34 40 38 51 70 43
127 -4 33 -2 39 13 39 12 0 25 -14 36 -35 15 -33 15 -38 -2 -92 -16 -48 -27
-62 -69 -91 -45 -31 -55 -34 -99 -28 -95 11 -166 91 -166 186 0 46 21 80 50
80 14 0 17 -10 16 -62z m199 16 c-2 -32 -28 -50 -44 -30 -9 11 -9 19 1 35 19
30 44 27 43 -5z m90 -194 c3 -5 1 -10 -4 -10 -6 0 -11 5 -11 10 0 6 2 10 4 10
3 0 8 -4 11 -10z m25 -436 c0 -13 -3 -14 -13 -5 -8 6 -17 8 -20 4 -4 -3 -7 -1
-7 5 0 7 9 12 20 12 12 0 20 -7 20 -16z m-140 -139 c50 -18 53 -18 45 -6 -3 5
-1 12 4 15 11 7 25 -12 26 -32 0 -7 18 -24 40 -38 57 -37 32 -27 -114 43 -70
34 -71 43 -1 18z m110 -25 c0 -5 -2 -10 -4 -10 -3 0 -8 5 -11 10 -3 6 -1 10 4
10 6 0 11 -4 11 -10z m-155 -26 l30 -26 -40 23 c-51 28 -51 29 -34 29 8 0 28
-12 44 -26z m135 -88 c45 -30 62 -44 129 -102 20 -17 58 -47 85 -67 27 -20 44
-37 38 -37 -6 0 -45 28 -88 63 -43 34 -109 86 -148 115 -108 81 -116 96 -16
28z m-683 18 c-3 -3 -12 -4 -19 -1 -8 3 -5 6 6 6 11 1 17 -2 13 -5z m290 -66
c-3 -8 -6 -5 -6 6 -1 11 2 17 5 13 3 -3 4 -12 1 -19z m133 -204 c0 -6 8 -29
17 -50 9 -22 17 -43 18 -49 3 -39 23 -87 61 -151 46 -79 50 -89 34 -99 -6 -3
-7 1 -4 9 3 9 1 16 -4 16 -21 0 -153 318 -152 364 1 15 30 -25 30 -40z m610
16 c0 -5 -7 -7 -15 -4 -8 4 -15 8 -15 10 0 2 7 4 15 4 8 0 15 -4 15 -10z
m-447 -424 c4 -10 1 -13 -9 -9 -15 6 -19 23 -5 23 5 0 11 -7 14 -14z m-211
-78 c-7 -7 -12 -8 -12 -2 0 14 12 26 19 19 2 -3 -1 -11 -7 -17z m128 -49 c0
-4 -7 -6 -15 -3 -8 4 -15 10 -15 15 0 4 7 6 15 3 8 -4 15 -10 15 -15z m-270
-15 c0 -8 -4 -12 -10 -9 -5 3 -10 10 -10 16 0 5 5 9 10 9 6 0 10 -7 10 -16z
m173 -17 c-4 -7 0 -6 10 2 15 12 17 11 17 -13 0 -25 -1 -25 -20 -9 -20 18 -29
49 -10 38 6 -4 7 -12 3 -18z m687 -47 c0 -5 -2 -10 -4 -10 -3 0 -8 5 -11 10
-3 6 -1 10 4 10 6 0 11 -4 11 -10z m-700 -30 c0 -5 -4 -10 -10 -10 -5 0 -10 5
-10 10 0 6 5 10 10 10 6 0 10 -4 10 -10z m850 -11 c0 -6 -4 -7 -10 -4 -5 3
-10 11 -10 16 0 6 5 7 10 4 6 -3 10 -11 10 -16z m-204 -71 c0 -15 -2 -16 -16
-3 -9 8 -20 12 -25 8 -4 -5 -6 -3 -2 2 10 18 43 12 43 -7z m164 -88 c0 -5 -2
-10 -4 -10 -3 0 -8 5 -11 10 -3 6 -1 10 4 10 6 0 11 -4 11 -10z m40 -31 c0 -6
-4 -7 -10 -4 -5 3 -10 11 -10 16 0 6 5 7 10 4 6 -3 10 -11 10 -16z m65 -89 c3
-5 1 -10 -4 -10 -6 0 -11 5 -11 10 0 6 2 10 4 10 3 0 8 -4 11 -10z m-248 -352
c-3 -8 -6 -5 -6 6 -1 11 2 17 5 13 3 -3 4 -12 1 -19z m57 -123 c-6 -26 9 -36
20 -12 5 9 7 9 12 -1 3 -6 10 -10 14 -7 5 3 11 1 15 -5 3 -5 -5 -14 -18 -19
-14 -6 -28 -15 -32 -20 -12 -20 -23 -11 -29 25 -5 22 -3 41 5 50 17 20 20 17
13 -11z m45 -98 c-5 -17 -9 -33 -9 -34 0 -2 -5 -3 -11 -3 -10 0 -4 52 8 73 11
19 21 -7 12 -36z m68 -39 c-3 -8 -6 -5 -6 6 -1 11 2 17 5 13 3 -3 4 -12 1 -19z
m-17 -72 c0 -7 -6 -20 -13 -30 -12 -16 -13 -14 -9 18 4 32 22 43 22 12z m960
-686 c0 -5 -5 -10 -11 -10 -5 0 -7 5 -4 10 3 6 8 10 11 10 2 0 4 -4 4 -10z
m110 -72 c0 -18 -2 -20 -9 -8 -6 8 -7 18 -5 22 9 14 14 9 14 -14z m-73 -20
c-3 -8 -6 -5 -6 6 -1 11 2 17 5 13 3 -3 4 -12 1 -19z m423 13 c0 -6 -5 -13
-10 -16 -6 -3 -7 -18 -4 -33 5 -21 4 -24 -6 -15 -13 12 -5 73 11 73 5 0 9 -4
9 -9z m-332 -66 c14 -29 -2 -34 -18 -6 -12 24 -13 31 -2 31 5 0 14 -11 20 -25z
m-818 5 c0 -5 -9 -14 -20 -20 -16 -8 -20 -8 -18 2 5 23 38 39 38 18z m880 -6
c0 -8 -4 -12 -10 -9 -5 3 -10 10 -10 16 0 5 5 9 10 9 6 0 10 -7 10 -16z m200
-50 c0 -8 -4 -12 -10 -9 -5 3 -10 10 -10 16 0 5 5 9 10 9 6 0 10 -7 10 -16z
m90 -19 c0 -5 -5 -3 -10 5 -5 8 -10 20 -10 25 0 6 5 3 10 -5 5 -8 10 -19 10
-25z m-260 3 c0 -13 1 -41 2 -63 1 -42 -31 -130 -39 -107 -3 7 -1 18 5 25 15
20 23 66 14 85 -5 9 -12 29 -16 44 -5 22 -3 26 9 22 8 -4 15 -1 15 5 0 22 10
11 10 -11z m-151 -50 c-5 -10 -12 -18 -14 -18 -3 0 -5 8 -5 18 0 10 7 19 14
19 11 0 13 -5 5 -19z m229 -3 c-8 -18 -15 -22 -22 -15 -7 7 -4 15 10 25 25 19
25 19 12 -10z m-258 6 c0 -6 -4 -13 -10 -16 -5 -3 -10 1 -10 9 0 9 5 16 10 16
6 0 10 -4 10 -9z m448 -58 c-2 -38 -28 -82 -28 -49 0 9 5 16 10 16 6 0 9 3 9
8 -3 18 2 62 6 62 3 0 5 -17 3 -37z m82 9 c0 -15 -2 -15 -10 -2 -13 20 -13 33
0 25 6 -3 10 -14 10 -23z m-545 -24 c5 -18 3 -28 -4 -28 -6 0 -11 9 -11 19 0
11 -3 28 -6 38 -5 12 -4 15 4 8 6 -5 14 -22 17 -37z m107 28 c6 4 8 -1 6 -12
-2 -11 -10 -18 -16 -16 -7 1 -12 -5 -12 -15 0 -9 -2 -14 -5 -11 -3 3 -2 20 2
39 3 18 8 28 11 21 2 -7 8 -9 14 -6z m422 -18 c8 -33 7 -38 -6 -33 -14 6 -21
55 -8 55 4 0 10 -10 14 -22z m171 12 c3 -5 1 -10 -4 -10 -6 0 -11 5 -11 10 0
6 2 10 4 10 3 0 8 -4 11 -10z m-340 -59 c-3 -6 -11 -11 -16 -11 -5 0 -4 6 3
14 14 16 24 13 13 -3z m-391 -16 c-4 -8 -8 -15 -10 -15 -2 0 -4 7 -4 15 0 8 4
15 10 15 5 0 7 -7 4 -15z m433 -7 c-3 -8 -6 -5 -6 6 -1 11 2 17 5 13 3 -3 4
-12 1 -19z m39 -36 c-9 -46 -19 -71 -27 -66 -12 7 -11 38 2 68 13 27 31 26 25
-2z m-67 -17 c5 2 9 -7 9 -21 0 -17 -3 -22 -8 -13 -7 10 -12 10 -23 0 -22 -18
-26 -1 -9 39 14 31 16 33 20 12 2 -12 7 -20 11 -17z m314 18 c-3 -7 -9 -13
-14 -13 -5 0 -9 6 -9 13 0 8 6 14 14 14 8 0 12 -6 9 -14z m-1758 -3 c3 -5 1
-10 -4 -10 -6 0 -11 5 -11 10 0 6 2 10 4 10 3 0 8 -4 11 -10z m4186 1 c-12 -8
-12 -10 1 -12 13 -3 12 -7 -4 -23 -18 -19 -18 -19 -18 12 0 24 4 32 18 32 14
0 14 -2 3 -9z m-1736 -29 c-8 -8 -25 10 -19 20 4 6 9 5 15 -3 4 -7 6 -15 4
-17z m65 7 c0 -6 -4 -7 -10 -4 -5 3 -10 11 -10 16 0 6 5 7 10 4 6 -3 10 -11
10 -16z m-1132 -34 c-6 -19 -15 -32 -19 -29 -9 5 -2 31 14 52 15 19 16 15 5
-23z m971 23 c-1 -7 -5 -24 -9 -38 -7 -22 -8 -20 -7 13 1 20 5 37 9 37 4 0 8
-6 7 -12z m-769 -16 c0 -10 -7 -27 -15 -38 -14 -18 -15 -17 -9 11 10 47 24 62
24 27z m142 -28 c-9 -16 -10 -16 -21 5 -16 28 -4 48 16 28 11 -11 12 -20 5
-33z m269 3 c-8 -8 -11 -3 -11 19 1 25 2 27 11 11 8 -14 8 -22 0 -30z m507 21
c-5 -15 -23 -11 -26 6 -2 11 2 14 13 10 9 -4 14 -11 13 -16z m-860 -8 c-14
-22 -24 -19 -15 5 4 8 11 15 17 15 6 0 6 -7 -2 -20z m-302 -17 c-10 -10 -19 5
-10 18 6 11 8 11 12 0 2 -7 1 -15 -2 -18z m504 13 c0 -8 -4 -18 -10 -21 -5 -3
-10 -21 -10 -38 0 -21 -3 -27 -9 -19 -4 7 -14 12 -21 10 -8 -2 -16 5 -18 15
-3 15 0 18 17 12 12 -3 21 -2 21 3 0 5 -9 12 -20 15 -11 3 -20 10 -20 17 0 7
8 9 19 5 11 -3 22 -1 26 5 9 15 25 12 25 -4z m59 -13 c1 -1 0 -6 -3 -12 -10
-16 -36 -1 -36 21 0 18 2 19 18 7 9 -7 19 -14 21 -16z m156 18 c3 -5 1 -12 -5
-16 -5 -3 -10 1 -10 9 0 18 6 21 15 7z m229 -7 c3 -8 2 -12 -4 -9 -6 3 -10 10
-10 16 0 14 7 11 14 -7z m-691 -9 c-3 -9 -8 -14 -10 -11 -3 3 -2 9 2 15 9 16
15 13 8 -4z m797 -12 c0 -21 -3 -24 -9 -14 -5 8 -7 20 -4 28 8 21 13 15 13
-14z m35 17 c-3 -5 -11 -10 -16 -10 -6 0 -7 5 -4 10 3 6 11 10 16 10 6 0 7 -4
4 -10z m-228 -32 c-3 -8 -6 -5 -6 6 -1 11 2 17 5 13 3 -3 4 -12 1 -19z m120
16 c-3 -4 1 -13 10 -22 14 -14 14 -16 -3 -23 -11 -3 -27 -2 -37 3 -18 9 -18
11 -1 29 9 10 22 19 27 19 6 0 8 -3 4 -6z m-692 -14 c-3 -5 -12 -10 -18 -10
-7 0 -6 4 3 10 19 12 23 12 15 0z m45 0 c0 -5 -4 -10 -10 -10 -5 0 -10 5 -10
10 0 6 5 10 10 10 6 0 10 -4 10 -10z m398 -8 c2 -7 -2 -11 -9 -10 -7 2 -16
-10 -20 -27 -6 -26 -7 -24 -6 13 2 31 6 42 16 40 8 -2 16 -9 19 -16z m52 -56
c-13 -13 -19 -6 -26 35 l-6 34 21 -30 c13 -19 17 -33 11 -39z m-840 25 c-1 -9
-6 -26 -13 -38 -12 -21 -13 -20 -15 22 -1 35 1 43 13 39 8 -4 15 -14 15 -23z
m686 3 c-3 -8 -1 -14 4 -14 9 0 14 14 11 33 0 4 5 7 13 7 10 0 14 -10 14 -31
-1 -16 -4 -27 -7 -22 -11 15 -46 8 -58 -12 -17 -28 -17 2 -1 37 13 26 34 28
24 2z m239 -5 c11 -17 -1 -21 -15 -4 -8 9 -8 15 -2 15 6 0 14 -5 17 -11z"/>
<path d="M1785 5080 c-3 -5 -1 -10 4 -10 6 0 11 5 11 10 0 6 -2 10 -4 10 -3 0
-8 -4 -11 -10z"/>
<path d="M1836 5015 c-3 -8 -1 -15 3 -15 5 0 11 7 15 15 3 8 1 15 -3 15 -5 0
-11 -7 -15 -15z"/>
<path d="M2337 4987 c-3 -8 -2 -20 3 -26 5 -9 8 -4 8 13 0 29 -3 32 -11 13z"/>
<path d="M2320 4925 c-8 -10 -24 -14 -42 -11 -22 3 -28 0 -28 -14 0 -19 14
-33 38 -36 8 -2 11 4 7 17 -4 11 -3 19 2 18 21 -4 31 3 36 21 6 24 4 25 -13 5z"/>
<path d="M2145 4920 c3 -5 8 -10 11 -10 2 0 4 5 4 10 0 6 -5 10 -11 10 -5 0
-7 -4 -4 -10z"/>
<path d="M1876 4855 c-3 -8 -1 -15 3 -15 5 0 11 7 15 15 3 8 1 15 -3 15 -5 0
-11 -7 -15 -15z"/>
<path d="M1345 4830 c3 -5 8 -10 11 -10 2 0 4 5 4 10 0 6 -5 10 -11 10 -5 0
-7 -4 -4 -10z"/>
<path d="M1457 4820 c-3 -10 1 -24 8 -30 10 -9 16 -6 25 11 10 17 9 23 -1 30
-21 13 -26 11 -32 -11z"/>
<path d="M1361 4754 c0 -11 3 -14 6 -6 3 7 2 16 -1 19 -3 4 -6 -2 -5 -13z"/>
<path d="M1117 4569 c-26 -30 -28 -54 -4 -46 7 2 17 -2 22 -10 8 -10 16 -3 37
32 20 32 24 45 14 45 -8 0 -20 2 -28 5 -7 3 -26 -9 -41 -26z"/>
<path d="M1374 4563 c-24 -58 -24 -73 3 -79 16 -4 22 -11 19 -21 -4 -9 -1 -13
6 -10 17 5 16 103 -1 99 -8 -2 -10 4 -6 18 10 30 -8 24 -21 -7z m16 -58 c0 -8
-4 -15 -10 -15 -5 0 -10 7 -10 15 0 8 5 15 10 15 6 0 10 -7 10 -15z"/>
<path d="M2668 4583 c-10 -2 -18 -9 -18 -14 0 -14 20 -11 36 6 16 15 13 16
-18 8z"/>
<path d="M1060 4570 c0 -5 5 -10 11 -10 5 0 7 5 4 10 -3 6 -8 10 -11 10 -2 0
-4 -4 -4 -10z"/>
<path d="M2647 4533 c-3 -5 -2 -15 2 -22 7 -10 10 -10 16 -1 4 6 3 16 -3 22
-5 5 -12 6 -15 1z"/>
<path d="M2404 4511 c4 -6 3 -11 -2 -11 -16 0 -24 -33 -11 -41 15 -9 49 11 49
28 0 6 6 13 13 16 6 2 5 3 -4 2 -9 -1 -24 2 -34 8 -13 7 -16 6 -11 -2z"/>
<path d="M2715 4470 c-4 -6 6 -10 22 -10 22 0 25 2 13 10 -19 12 -27 12 -35 0z"/>
<path d="M1224 4455 c-3 -8 -4 -20 -2 -27 3 -7 7 -1 10 15 6 29 1 36 -8 12z"/>
<path d="M2427 4448 c-9 -7 -13 -18 -9 -23 4 -6 16 -2 29 12 24 25 9 32 -20
11z"/>
<path d="M1790 4429 c0 -5 5 -7 10 -4 6 3 10 8 10 11 0 2 -4 4 -10 4 -5 0 -10
-5 -10 -11z"/>
<path d="M2599 4420 c-8 -5 -6 -15 6 -34 17 -26 17 -26 -9 -26 -16 0 -25 -4
-21 -10 3 -6 18 -7 33 -4 39 10 46 15 31 25 -8 5 -9 9 -3 9 6 0 9 10 7 23 -5
24 -22 30 -44 17z"/>
<path d="M2210 4379 c0 -5 5 -7 10 -4 6 3 10 8 10 11 0 2 -4 4 -10 4 -5 0 -10
-5 -10 -11z"/>
<path d="M1197 4374 c-8 -8 1 -24 14 -24 5 0 9 7 9 15 0 15 -12 20 -23 9z"/>
<path d="M2230 4285 c0 -18 -14 -19 -42 -4 -15 8 -22 8 -28 0 -3 -7 -15 -9
-26 -5 -12 3 -14 3 -7 -3 6 -4 15 -22 19 -38 11 -46 12 -46 61 -18 31 17 44
21 40 11 -4 -11 4 -15 30 -16 45 -2 39 20 -9 31 -30 7 -34 12 -30 33 2 13 2
24 -2 24 -3 0 -6 -7 -6 -15z m-45 -35 c3 -5 1 -10 -4 -10 -6 0 -11 5 -11 10 0
6 2 10 4 10 3 0 8 -4 11 -10z"/>
<path d="M2050 4279 c0 -5 4 -9 9 -9 8 0 21 -29 25 -54 0 -5 7 -11 14 -14 8
-2 11 7 10 31 -2 27 -9 37 -30 45 -16 6 -28 6 -28 1z"/>
<path d="M2300 4270 c0 -5 4 -10 9 -10 6 0 13 5 16 10 3 6 -1 10 -9 10 -9 0
-16 -4 -16 -10z"/>
<path d="M2010 4261 c0 -6 5 -13 10 -16 6 -3 10 1 10 9 0 9 -4 16 -10 16 -5 0
-10 -4 -10 -9z"/>
<path d="M1650 4224 c0 -8 5 -12 10 -9 6 3 10 10 10 16 0 5 -4 9 -10 9 -5 0
-10 -7 -10 -16z"/>
<path d="M2610 4199 c0 -19 -2 -20 -17 -8 -13 9 -12 6 2 -8 16 -18 26 -20 54
-15 l34 7 -24 16 c-48 31 -49 31 -49 8z"/>
<path d="M1200 4180 c0 -16 -4 -30 -10 -30 -17 0 -11 -51 11 -86 11 -19 17
-34 13 -34 -4 0 15 -24 42 -54 27 -30 58 -66 69 -80 21 -27 45 -34 46 -13 0
15 107 106 154 130 19 11 35 26 35 34 0 13 -3 13 -15 3 -12 -10 -16 -8 -25 15
-5 14 -14 23 -20 20 -5 -3 -10 -1 -10 4 0 6 -18 11 -40 11 -22 0 -40 4 -40 10
0 5 -16 12 -35 16 -19 3 -37 10 -40 14 -3 5 -14 6 -25 3 -14 -4 -20 0 -20 10
0 22 -30 49 -46 43 -7 -3 -16 -1 -19 4 -12 20 -25 9 -25 -20z"/>
<path d="M1884 4198 c3 -7 9 -21 12 -30 10 -28 31 -21 36 12 3 20 1 27 -5 21
-7 -7 -17 -6 -30 0 -15 9 -18 8 -13 -3z"/>
<path d="M2017 4178 l-28 -29 37 -25 c40 -27 55 -27 28 1 -11 10 -13 19 -7 23
15 11 22 50 9 55 -6 2 -24 -9 -39 -25z"/>
<path d="M2695 4190 c3 -5 8 -10 11 -10 2 0 4 5 4 10 0 6 -5 10 -11 10 -5 0
-7 -4 -4 -10z"/>
<path d="M2130 4180 c0 -5 5 -10 11 -10 5 0 7 5 4 10 -3 6 -8 10 -11 10 -2 0
-4 -4 -4 -10z"/>
<path d="M1050 4159 c0 -24 23 -21 28 4 2 10 -3 17 -12 17 -10 0 -16 -9 -16
-21z"/>
<path d="M2515 4160 c-3 -5 3 -10 14 -10 12 0 21 5 21 10 0 6 -6 10 -14 10 -8
0 -18 -4 -21 -10z"/>
<path d="M2566 4153 c11 -33 27 -63 35 -63 5 0 13 10 20 22 10 18 9 20 -5 15
-10 -4 -16 -1 -16 8 0 8 -9 19 -20 25 -17 9 -19 8 -14 -7z"/>
<path d="M2363 4123 c9 -2 23 -2 30 0 6 3 -1 5 -18 5 -16 0 -22 -2 -12 -5z"/>
<path d="M1020 4113 c0 -13 53 -63 67 -63 22 0 14 20 -12 30 -14 5 -28 17 -31
25 -6 15 -24 21 -24 8z"/>
<path d="M1115 4040 c3 -5 8 -10 11 -10 2 0 4 5 4 10 0 6 -5 10 -11 10 -5 0
-7 -4 -4 -10z"/>
<path d="M1093 3993 c9 -9 20 -13 24 -9 4 4 1 11 -7 16 -25 16 -35 11 -17 -7z"/>
<path d="M1830 3962 c0 -5 7 -13 16 -16 10 -4 14 -1 12 6 -5 15 -28 23 -28 10z"/>
<path d="M1700 3880 c0 -5 5 -10 10 -10 6 0 10 5 10 10 0 6 -4 10 -10 10 -5 0
-10 -4 -10 -10z"/>
<path d="M1780 3870 c0 -5 5 -10 10 -10 6 0 10 5 10 10 0 6 -4 10 -10 10 -5 0
-10 -4 -10 -10z"/>
<path d="M1840 3850 c0 -5 5 -10 10 -10 6 0 10 5 10 10 0 6 -4 10 -10 10 -5 0
-10 -4 -10 -10z"/>
<path d="M1660 3821 c0 -10 30 -24 37 -17 3 3 2 9 -2 15 -8 13 -35 15 -35 2z"/>
<path d="M1720 3801 c0 -5 7 -11 15 -15 9 -3 15 0 15 9 0 8 -7 15 -15 15 -8 0
-15 -4 -15 -9z"/>
<path d="M1792 3789 c2 -7 10 -15 17 -17 8 -3 12 1 9 9 -2 7 -10 15 -17 17 -8
3 -12 -1 -9 -9z"/>
<path d="M1338 5156 c-3 -14 -2 -26 2 -26 12 0 19 26 10 39 -5 9 -9 4 -12 -13z"/>
<path d="M1504 5144 c3 -9 6 -18 6 -20 0 -2 5 -4 10 -4 6 0 10 9 10 20 0 12
-7 20 -16 20 -11 0 -14 -5 -10 -16z"/>
<path d="M1477 5123 c-4 -3 -7 -11 -7 -17 0 -6 5 -5 12 2 6 6 9 14 7 17 -3 3
-9 2 -12 -2z"/>
<path d="M2572 4998 c-19 -19 -14 -29 8 -16 20 13 27 28 12 28 -4 0 -13 -5
-20 -12z"/>
<path d="M1743 6977 c21 -22 23 -23 52 -8 17 9 39 19 50 22 11 4 -12 7 -52 8
l-72 1 22 -23z"/>
<path d="M2147 6943 c8 -117 36 -185 104 -250 68 -64 227 -80 325 -32 48 23
81 61 120 142 27 55 44 65 44 26 0 -10 -5 -19 -11 -19 -8 0 -10 -15 -5 -46 3
-27 2 -43 -3 -39 -6 3 -24 -15 -40 -39 -17 -25 -40 -48 -51 -51 -12 -4 -41
-26 -65 -50 -40 -39 -51 -43 -120 -54 -94 -14 -265 -14 -300 -1 -15 6 -33 17
-42 25 -8 8 -19 13 -24 10 -5 -4 -9 -2 -9 2 0 5 -15 15 -34 21 -37 14 -71 69
-68 110 3 40 -35 98 -70 107 -40 9 -57 18 -52 26 3 5 1 9 -5 9 -5 0 -22 11
-37 25 -35 33 -41 32 -53 -11 -8 -28 -7 -43 4 -64 8 -15 11 -30 8 -34 -4 -3
-1 -6 6 -6 7 0 3 -9 -9 -22 -23 -25 -23 -28 -10 -63 5 -14 14 -23 20 -20 6 4
7 -1 3 -11 -4 -12 -3 -15 5 -10 7 4 12 1 12 -9 0 -9 -4 -14 -9 -11 -4 3 -6 -6
-3 -19 4 -24 -3 -28 -34 -24 -4 0 -10 -5 -15 -13 -9 -15 -103 -17 -234 -6 -44
4 -118 8 -165 9 -47 1 -94 6 -105 12 -11 6 -25 11 -31 12 -6 0 -22 14 -36 30
-15 17 -29 27 -33 24 -3 -4 2 -15 13 -25 11 -11 26 -33 35 -50 9 -17 30 -46
47 -64 17 -18 43 -54 58 -79 15 -25 32 -53 37 -62 6 -10 29 -51 53 -93 32 -57
49 -76 65 -77 12 -1 40 -3 62 -4 158 -13 844 -16 1080 -5 149 7 310 14 359 15
48 2 105 6 125 10 20 4 37 7 38 7 2 -1 17 4 35 9 18 6 65 12 103 15 93 5 210
27 211 39 1 6 5 21 9 34 7 20 12 22 44 17 20 -4 77 -11 126 -16 50 -5 119 -14
155 -20 36 -6 88 -12 115 -15 153 -16 1394 -49 1664 -46 79 2 141 -1 138 -6
-3 -4 6 -9 19 -9 13 -1 21 2 18 7 -3 5 2 9 11 9 10 0 13 -5 9 -12 -4 -6 -3 -8
2 -5 6 3 28 2 50 -3 21 -4 64 -11 94 -14 30 -4 88 -10 128 -15 40 -5 82 -7 93
-4 10 3 31 1 47 -5 45 -17 570 -34 579 -18 3 4 9 2 14 -5 6 -9 12 -10 17 -4 4
6 12 10 17 11 33 3 76 19 92 34 31 29 57 38 86 33 l27 -5 0 396 0 396 -582 -1
c-321 -1 -682 -4 -803 -8 l-220 -6 -26 -55 -26 -55 29 -8 c16 -4 68 -6 116 -5
l87 3 19 43 c19 41 21 42 68 42 l48 0 -20 -40 c-11 -21 -20 -42 -20 -45 0 -3
41 -5 90 -5 50 0 90 -4 90 -8 0 -4 -27 -41 -60 -81 -33 -41 -60 -78 -60 -83 0
-6 11 -7 25 -4 14 3 37 9 52 13 l27 6 -23 -32 c-13 -18 -29 -35 -36 -37 -6 -3
-51 -4 -99 -2 l-86 3 41 55 c22 30 55 69 71 87 26 27 29 33 15 38 -8 4 -28 5
-43 3 -25 -3 -33 -13 -69 -95 l-40 -93 -47 0 -47 0 35 83 c20 45 38 88 41 96
4 9 0 12 -13 9 -12 -2 -31 -33 -59 -95 l-40 -93 -42 0 c-24 0 -43 4 -43 9 0 5
16 46 35 91 19 45 35 83 35 85 0 5 -100 -1 -103 -6 -2 -2 -20 -43 -41 -91
l-39 -88 -48 0 -48 0 35 83 c20 45 38 88 41 95 3 7 -4 12 -19 12 -26 0 -65 34
-68 60 -5 36 2 61 26 89 l26 31 -1519 0 -1520 0 4 -57z m1196 -15 c42 -13 40
-10 27 -55 -5 -18 -15 -50 -21 -70 -15 -48 -35 -72 -58 -66 -20 5 -91 154 -91
191 0 21 3 22 53 17 28 -3 69 -11 90 -17z m2227 18 c0 -3 -4 -16 -10 -30 -8
-23 -15 -26 -55 -26 -50 0 -49 -1 -33 35 9 21 18 25 55 25 23 0 43 -2 43 -4z
m-2080 -162 c8 -16 20 -37 28 -46 10 -12 12 -30 8 -62 -9 -57 -21 -67 -71 -56
-30 6 -136 18 -184 20 -2 0 2 6 8 14 13 16 -2 32 -19 21 -5 -3 -10 -2 -10 2 0
10 74 43 95 43 8 0 15 6 15 14 0 7 11 21 25 30 29 19 32 48 10 90 -8 15 -12
33 -8 39 8 12 81 -65 103 -109z m-280 -24 c0 -11 -4 -20 -10 -20 -5 0 -10 -4
-10 -10 0 -5 7 -10 15 -10 24 0 17 -29 -10 -42 -34 -15 -40 -5 -24 34 7 18 14
38 15 43 2 21 4 25 14 25 6 0 10 -9 10 -20z m-1325 1 c3 -5 1 -12 -5 -16 -5
-3 -10 1 -10 9 0 18 6 21 15 7z m3465 -195 c79 -1 94 -4 91 -16 -2 -8 -4 -22
-3 -31 0 -13 -11 -16 -53 -17 -47 0 -54 3 -57 21 -3 21 -3 21 -22 1 -15 -15
-35 -19 -88 -21 -37 -1 -70 3 -73 8 -4 5 1 9 10 9 15 0 15 1 0 17 -16 16 -16
17 0 29 11 9 33 11 59 8 23 -3 84 -7 136 -8z m202 -21 c-3 -18 0 -25 11 -25 9
0 17 10 19 23 2 15 11 23 28 25 24 2 24 2 6 -13 -11 -8 -15 -15 -8 -15 6 0 9
-7 5 -16 -10 -28 21 -11 35 19 17 34 28 34 37 0 l8 -28 10 28 c6 15 18 27 28
27 23 0 28 -9 22 -42 l-5 -27 -140 1 c-148 0 -161 4 -138 47 8 16 20 21 49 21
35 0 38 -2 33 -25z m-4069 -85 c48 -1 87 -6 87 -11 0 -5 -7 -9 -15 -9 -21 0
-27 -1 -53 -11 -15 -6 -21 -5 -17 1 9 14 -2 12 -28 -4 -28 -18 -123 -18 -138
1 -6 7 -14 11 -18 9 -3 -2 -14 4 -23 13 -16 16 -13 17 50 15 37 -1 106 -3 155
-4z m287 -16 c39 -7 52 -14 27 -14 -9 0 -17 -4 -17 -8 0 -26 -125 -36 -140
-12 -3 5 -18 14 -33 19 -74 28 35 38 163 15z m943 -1 c4 -2 1 -14 -7 -25 -8
-11 -12 -26 -10 -33 3 -7 0 -16 -6 -20 -8 -5 -7 -11 2 -23 7 -10 9 -14 5 -11
-5 4 -29 0 -54 -7 -74 -22 -202 -17 -187 8 11 17 -49 58 -86 58 -47 0 -172 46
-145 53 25 6 477 7 488 0z m-213 -183 c10 -7 -13 -10 -75 -9 -59 0 -83 3 -70
9 28 12 127 12 145 0z"/>
<path d="M5185 6550 c3 -5 10 -10 16 -10 5 0 9 5 9 10 0 6 -7 10 -16 10 -8 0
-12 -4 -9 -10z"/>
<path d="M5360 6550 c0 -5 6 -10 13 -10 8 0 7 -4 -3 -10 -13 -8 -12 -10 3 -10
10 0 17 8 17 20 0 11 -7 20 -15 20 -8 0 -15 -4 -15 -10z"/>
<path d="M5490 6535 c0 -8 9 -15 20 -15 11 0 20 7 20 15 0 8 -9 15 -20 15 -11
0 -20 -7 -20 -15z"/>
<path d="M5233 6971 c-42 -20 -72 -57 -56 -71 4 -4 22 -11 38 -14 29 -6 32 -4
53 39 35 72 32 76 -35 46z"/>
<path d="M1765 6930 c-3 -5 -2 -10 4 -10 5 0 13 5 16 10 3 6 2 10 -4 10 -5 0
-13 -4 -16 -10z"/>
<path d="M27 6773 c-26 -4 -27 -6 -27 -70 l0 -66 110 7 c127 7 150 17 150 63
0 58 -27 73 -122 72 -46 -1 -95 -4 -111 -6z"/>
<path d="M2115 5840 c-3 -5 7 -12 22 -16 15 -3 56 -19 89 -35 60 -29 63 -29
107 -14 25 8 49 15 54 14 29 -5 64 4 89 24 l29 22 -45 7 c-71 10 -338 9 -345
-2z"/>
<path d="M2305 5691 c-3 -6 -14 -11 -23 -11 -25 0 -46 -16 -38 -29 5 -7 13 -8
24 -1 33 19 55 40 50 46 -3 3 -9 1 -13 -5z"/>
<path d="M2220 5635 c0 -8 5 -15 10 -15 6 0 10 7 10 15 0 8 -4 15 -10 15 -5 0
-10 -7 -10 -15z"/>
<path d="M0 5566 c0 -9 3 -16 8 -16 4 -1 38 -3 76 -5 38 -2 74 -9 80 -15 16
-16 26 -12 26 10 0 15 -7 20 -27 21 -16 1 -39 3 -53 5 -111 16 -110 16 -110 0z"/>
<path d="M1970 5544 c0 -8 5 -12 10 -9 6 3 10 10 10 16 0 5 -4 9 -10 9 -5 0
-10 -7 -10 -16z"/>
<path d="M286 5528 c-11 -6 -33 -11 -49 -10 -16 0 -53 -10 -81 -24 -29 -14
-75 -30 -102 -37 l-49 -12 -3 -67 -3 -67 33 10 c18 6 62 17 98 25 77 16 143
36 150 44 3 3 23 14 45 24 47 21 65 41 65 72 0 46 -57 69 -104 42z"/>
<path d="M321 1915 c-46 -83 -49 -95 -22 -95 15 0 19 -10 24 -52 12 -99 35
-208 47 -223 7 -8 21 -15 31 -15 24 0 39 -29 28 -55 -12 -31 -11 -32 22 -44
25 -9 31 -15 27 -34 -3 -17 0 -23 15 -24 11 -1 25 -7 31 -13 16 -16 13 -172
-3 -204 -12 -22 -12 -37 -1 -98 13 -75 30 -104 55 -94 19 7 20 36 1 36 -16 0
-22 22 -32 103 -4 37 -3 57 4 57 13 0 19 -16 27 -74 7 -45 19 -65 28 -49 3 5
35 142 71 306 65 291 66 297 49 324 -10 16 -22 31 -26 34 -5 4 -4 29 2 59 13
61 9 70 -29 70 -25 0 -32 -6 -45 -37 -9 -20 -17 -59 -18 -87 -2 -32 -8 -51
-18 -54 -8 -2 -20 -11 -26 -20 -11 -14 -13 -12 -13 14 0 16 7 50 15 76 8 27
10 50 5 53 -16 10 -60 -7 -60 -23 0 -24 -13 -6 -14 20 -1 17 -7 22 -23 21 -19
-2 -23 6 -38 69 -18 82 -40 128 -59 128 -8 0 -33 -34 -55 -75z m71 -167 c3
-54 -9 -65 -19 -17 -3 17 -12 33 -19 36 -18 7 -18 33 0 33 8 0 17 8 22 18 7
15 8 15 10 -3 2 -11 5 -41 6 -67z m48 26 c0 -19 -4 -34 -9 -34 -14 0 -26 43
-13 48 6 2 8 10 5 19 -4 11 -2 14 5 9 7 -4 12 -23 12 -42z m247 -146 c-3 -7
-5 -2 -5 12 0 14 2 19 5 13 2 -7 2 -19 0 -25z m30 -10 c-3 -7 -5 -2 -5 12 0
14 2 19 5 13 2 -7 2 -19 0 -25z m-69 -253 c1 -19 -3 -35 -8 -35 -6 0 -10 16
-10 35 0 19 4 35 8 35 5 0 9 -16 10 -35z m-68 -161 c0 -8 -4 -14 -9 -14 -6 0
-9 9 -8 19 1 22 17 18 17 -5z"/>
<path d="M580 1799 c0 -5 5 -7 10 -4 6 3 10 8 10 11 0 2 -4 4 -10 4 -5 0 -10
-5 -10 -11z"/>
<path d="M317 1421 c7 -32 13 -40 13 -18 0 9 7 20 16 25 14 8 12 10 -10 14
-23 5 -25 3 -19 -21z"/>
<path d="M330 1356 c0 -4 11 -19 25 -34 14 -15 25 -30 25 -34 0 -12 -14 -10
-29 5 -11 10 -13 8 -7 -13 3 -14 6 -48 6 -76 0 -49 1 -51 34 -61 24 -8 41 -7
62 3 24 10 26 13 9 15 -11 1 -30 1 -41 0 -32 -2 -45 20 -35 56 6 21 5 35 -2
42 -8 8 -8 11 1 11 19 0 31 42 19 67 -8 18 -13 20 -24 12 -10 -9 -17 -8 -28 1
-8 7 -15 9 -15 6z"/>
<path d="M425 1350 c-3 -5 -1 -10 4 -10 6 0 11 5 11 10 0 6 -2 10 -4 10 -3 0
-8 -4 -11 -10z"/>
<path d="M460 1310 c0 -11 7 -20 15 -20 8 0 15 7 15 16 0 9 5 12 12 8 7 -4 8
-3 4 4 -12 20 -46 14 -46 -8z"/>
<path d="M18 1256 c-10 -14 -18 -34 -18 -46 0 -24 27 -80 38 -80 14 0 31 74
20 88 -13 16 -4 26 17 19 11 -5 15 -21 15 -62 0 -71 -11 -91 -55 -99 l-35 -7
0 -139 c0 -77 4 -140 8 -140 4 0 13 5 19 11 19 19 26 -10 13 -57 -7 -26 -19
-44 -27 -44 -11 0 -14 -18 -11 -95 2 -89 5 -99 31 -130 16 -19 35 -35 44 -35
8 0 44 30 80 66 50 51 68 63 75 53 6 -10 7 -6 2 10 -16 57 -12 157 6 146 4 -3
7 6 6 20 -2 38 -12 30 -26 -20 -14 -50 -25 -62 -43 -47 -7 5 -34 13 -61 17
-69 10 -73 12 -68 44 4 28 5 28 39 19 19 -5 47 -6 62 -2 14 4 29 7 34 6 4 -1
7 5 7 12 0 8 16 27 35 42 43 33 45 45 4 34 -42 -12 -67 2 -73 43 -10 65 -13
137 -5 137 4 0 22 15 40 33 18 17 30 26 25 20 -4 -8 -1 -13 8 -13 9 0 16 5 16
10 0 6 8 10 19 10 10 0 25 7 32 16 12 14 9 20 -16 40 -35 28 -74 30 -116 8
-17 -8 -33 -13 -36 -10 -3 2 -13 35 -22 73 -15 59 -20 68 -42 70 -16 2 -30 -5
-41 -21z m172 -626 c0 -5 -11 -26 -25 -46 -29 -42 -32 -32 -9 26 14 35 34 46
34 20z"/>
<path d="M480 1211 c0 -12 5 -21 10 -21 6 0 10 6 10 14 0 8 -4 18 -10 21 -5 3
-10 -3 -10 -14z"/>
<path d="M432 1203 c-6 -3 -10 -9 -6 -14 7 -12 44 -12 44 0 0 11 -21 19 -38
14z"/>
<path d="M530 950 c0 -5 5 -10 11 -10 5 0 7 5 4 10 -3 6 -8 10 -11 10 -2 0 -4
-4 -4 -10z"/>
<path d="M2793 858 c1 -16 5 -28 9 -28 10 0 9 9 -2 35 -8 17 -8 16 -7 -7z"/>
<path d="M2251 741 c-7 -12 -7 -22 -2 -26 5 -3 13 4 16 16 9 28 -1 36 -14 10z"/>
<path d="M260 706 c0 -31 6 -34 13 -6 3 11 1 23 -4 26 -5 3 -9 -6 -9 -20z"/>
<path d="M2260 680 c19 -10 37 -16 39 -14 8 8 -34 33 -54 33 -15 0 -11 -5 15
-19z"/>
<path d="M2410 686 c0 -8 5 -18 10 -21 6 -3 10 1 10 9 0 8 -4 18 -10 21 -5 3
-10 -1 -10 -9z"/>
<path d="M5680 571 c0 -5 5 -13 10 -16 6 -3 10 -2 10 4 0 5 -4 13 -10 16 -5 3
-10 2 -10 -4z"/>
<path d="M202 418 c-15 -15 -16 -45 -1 -54 6 -3 9 -14 6 -24 -3 -13 0 -17 9
-13 15 5 16 9 18 62 1 37 -12 49 -32 29z"/>
<path d="M160 306 c0 -20 23 -46 40 -46 11 0 20 2 20 4 0 2 3 12 6 21 6 15 4
15 -15 3 -20 -11 -24 -11 -37 6 -8 11 -14 16 -14 12z"/>
</g>
</svg>
